<svg width="32" height="32" viewBox="0 0 32 32" fill="none" xmlns="http://www.w3.org/2000/svg">
<path d="M26.9892 6.72246C27.3861 6.67285 27.7085 6.37517 27.8078 5.97827C27.907 5.60618 27.783 5.18448 27.4853 4.93641C24.9054 2.75347 21.6062 1.53796 18.2078 1.53796C10.245 1.53796 3.74574 8.01238 3.74574 16C3.74574 23.9876 10.2202 30.462 18.2078 30.462C21.7799 30.462 25.2279 29.1225 27.907 26.7163C28.2047 26.4434 28.3039 26.0217 28.2047 25.6496C28.1054 25.2775 27.7581 25.0046 27.3612 24.955C22.7473 24.4093 19.2496 20.4899 19.2496 15.8263C19.2248 11.2372 22.4992 7.41703 26.9892 6.72246ZM17.1907 15.8015C17.1907 20.7132 20.3659 24.955 24.8806 26.4682C22.8961 27.7333 20.5892 28.4279 18.2078 28.4279C11.3612 28.4279 5.80466 22.8465 5.80466 16.0248C5.80466 9.20308 11.3861 3.62169 18.2078 3.62169C20.4155 3.62169 22.5737 4.21703 24.4589 5.30851C20.1426 6.8961 17.1907 11.0139 17.1907 15.8015Z" fill="black"/>
</svg>
