<svg width="25" height="25" viewBox="0 0 25 25" fill="none" xmlns="http://www.w3.org/2000/svg">
<path d="M7.5 20C6.125 20 5 21.125 5 22.5C5 23.875 6.125 25 7.5 25C8.875 25 10 23.875 10 22.5C10 21.125 8.875 20 7.5 20ZM0 0V2.5H2.5L7 12L5.25 15C5.125 15.375 5 15.875 5 16.25C5 17.625 6.125 18.75 7.5 18.75H22.5V16.25H8C7.875 16.25 7.75 16.125 7.75 16V15.875L8.875 13.75H18.125C19.125 13.75 19.875 13.25 20.25 12.5L24.75 4.375C25 4.125 25 4 25 3.75C25 3 24.5 2.5 23.75 2.5H5.25L4.125 0H0ZM20 20C18.625 20 17.5 21.125 17.5 22.5C17.5 23.875 18.625 25 20 25C21.375 25 22.5 23.875 22.5 22.5C22.5 21.125 21.375 20 20 20Z" fill="black"/>
</svg>
