<svg width="70" height="70" viewBox="0 0 70 70" fill="none" xmlns="http://www.w3.org/2000/svg">
<path d="M34.9999 50.248C43.4108 50.248 50.1937 43.4108 50.1937 35.0542C50.1937 26.6976 43.3565 19.8604 34.9999 19.8604C26.6434 19.8604 19.8062 26.6976 19.8062 35.0542C19.8062 43.4108 26.5891 50.248 34.9999 50.248ZM34.9999 24.2558C40.9689 24.2558 45.7984 29.0852 45.7984 35.0542C45.7984 41.0232 40.9689 45.8527 34.9999 45.8527C29.031 45.8527 24.2015 41.0232 24.2015 35.0542C24.2015 29.0852 29.031 24.2558 34.9999 24.2558Z" fill="black"/>
<path d="M37.2248 12.8062V5.80617C37.2248 4.5581 36.248 3.58136 34.9999 3.58136C33.7519 3.58136 32.7751 4.5581 32.7751 5.80617V12.8062C32.7751 14.0542 33.7519 15.031 34.9999 15.031C36.248 15.031 37.2248 14.0542 37.2248 12.8062Z" fill="black"/>
<path d="M32.7751 57.3023V64.3023C32.7751 65.5503 33.7519 66.5271 34.9999 66.5271C36.248 66.5271 37.2248 65.5503 37.2248 64.3023V57.3023C37.2248 56.0542 36.248 55.0775 34.9999 55.0775C33.7519 55.0775 32.7751 56.0542 32.7751 57.3023Z" fill="black"/>
<path d="M52.31 20.8915L57.248 15.9535C58.1163 15.0853 58.1163 13.6744 57.248 12.8062C56.3798 11.938 54.969 11.938 54.1007 12.8062L49.1628 17.7442C48.2945 18.6124 48.2945 20.0232 49.1628 20.8915C49.5969 21.3256 50.1395 21.5426 50.7364 21.5426C51.3333 21.5426 51.8759 21.3256 52.31 20.8915Z" fill="black"/>
<path d="M12.7519 57.3023C13.186 57.7364 13.7286 57.9535 14.3255 57.9535C14.8681 57.9535 15.465 57.7364 15.8992 57.3023L20.8371 52.3643C21.7054 51.4961 21.7054 50.0852 20.8371 49.217C19.9689 48.3488 18.5581 48.3488 17.6899 49.217L12.7519 54.155C11.8837 55.0232 11.8837 56.4341 12.7519 57.3023Z" fill="black"/>
<path d="M66.4728 35.0542C66.4728 33.8062 65.4961 32.8294 64.248 32.8294H57.248C56 32.8294 55.0232 33.8062 55.0232 35.0542C55.0232 36.3023 56 37.279 57.248 37.279H64.248C65.4418 37.279 66.4728 36.3023 66.4728 35.0542Z" fill="black"/>
<path d="M5.75191 37.279H12.7519C14 37.279 14.9767 36.3023 14.9767 35.0542C14.9767 33.8062 14 32.8294 12.7519 32.8294H5.75191C4.50384 32.8294 3.5271 33.8062 3.5271 35.0542C3.5271 36.3023 4.55811 37.279 5.75191 37.279Z" fill="black"/>
<path d="M55.6744 57.9535C56.217 57.9535 56.8139 57.7364 57.248 57.3023C58.1163 56.4341 58.1163 55.0232 57.248 54.155L52.31 49.217C51.4418 48.3488 50.031 48.3488 49.1628 49.217C48.2945 50.0852 48.2945 51.4961 49.1628 52.3643L54.1007 57.3023C54.5349 57.7364 55.1318 57.9535 55.6744 57.9535Z" fill="black"/>
<path d="M20.8371 20.8915C21.7054 20.0232 21.7054 18.6124 20.8371 17.7442L15.8992 12.8062C15.0309 11.938 13.6201 11.938 12.7519 12.8062C11.8837 13.6744 11.8837 15.0853 12.7519 15.9535L17.6899 20.8915C18.124 21.3256 18.6666 21.5426 19.2635 21.5426C19.8604 21.5426 20.403 21.3256 20.8371 20.8915Z" fill="black"/>
</svg>
